<svg width="25" height="25" viewBox="0 0 25 25" fill="none" xmlns="http://www.w3.org/2000/svg">
<g clip-path="url(#clip0_56_51)">
<path d="M12.1241 8.12054C11.2481 8.12054 9.89206 7.12454 8.46406 7.16054C6.58006 7.18454 4.85206 8.25253 3.88006 9.94453C1.92406 13.3405 3.37606 18.3565 5.28406 21.1165C6.22006 22.4605 7.32406 23.9725 8.78806 23.9245C10.1921 23.8645 10.7201 23.0125 12.4241 23.0125C14.1161 23.0125 14.5961 23.9245 16.0841 23.8885C17.5961 23.8645 18.5561 22.5205 19.4801 21.1645C20.5481 19.6045 20.9921 18.0925 21.0161 18.0085C20.9801 17.9965 18.0761 16.8805 18.0401 13.5205C18.0161 10.7125 20.3321 9.36854 20.4401 9.30854C19.1201 7.37653 17.0921 7.16054 16.3841 7.11254C14.5361 6.96854 12.9881 8.12054 12.1241 8.12054ZM15.2441 5.28854C16.0241 4.35254 16.5401 3.04454 16.3961 1.74854C15.2801 1.79654 13.9361 2.49254 13.1321 3.42854C12.4121 4.25654 11.7881 5.58854 11.9561 6.86054C13.1921 6.95654 14.4641 6.22453 15.2441 5.28854Z" fill="black"/>
</g>
<defs>
<clipPath id="clip0_56_51">
<rect width="24" height="24" fill="white" transform="translate(0.5 0.898438)"/>
</clipPath>
</defs>
</svg>
