<svg width="25" height="25" viewBox="0 0 25 25" fill="none" xmlns="http://www.w3.org/2000/svg">
<path d="M12.6603 7.99177C14.1626 7.99177 15.1759 8.64066 15.7537 9.18288L18.0114 6.97844C16.6248 5.68955 14.8203 4.89844 12.6603 4.89844C9.53145 4.89844 6.82923 6.69399 5.51367 9.30733L8.10034 11.3162C8.74923 9.38733 10.5448 7.99177 12.6603 7.99177Z" fill="#EA4335"/>
<path d="M20.3402 13.0762C20.3402 12.4185 20.2868 11.9385 20.1713 11.4407H12.6602V14.4096H17.069C16.9802 15.1473 16.5002 16.2585 15.4335 17.0051L17.9579 18.9607C19.469 17.5651 20.3402 15.5118 20.3402 13.0762Z" fill="#4285F4"/>
<path d="M8.10905 14.4807C7.94016 13.9829 7.84238 13.4496 7.84238 12.8985C7.84238 12.3474 7.94016 11.814 8.10016 11.3163L5.51349 9.30737C4.97127 10.3918 4.66016 11.6096 4.66016 12.8985C4.66016 14.1874 4.97127 15.4052 5.51349 16.4896L8.10905 14.4807Z" fill="#FBBC05"/>
<path d="M12.6602 20.8985C14.8202 20.8985 16.6336 20.1874 17.958 18.9607L15.4336 17.0052C14.758 17.4763 13.8513 17.8052 12.6602 17.8052C10.5447 17.8052 8.74913 16.4096 8.10913 14.4807L5.52246 16.4896C6.83802 19.1029 9.53135 20.8985 12.6602 20.8985Z" fill="#34A853"/>
</svg>
