<svg width="150" height="40" viewBox="0 0 150 40" fill="none" xmlns="http://www.w3.org/2000/svg">
<g clip-path="url(#clip0_38_507)">
<path d="M110.509 2.86539C110.509 1.28371 111.815 0 113.426 0H147.061C148.673 0 149.979 1.28371 149.979 2.86539V37.1351C149.979 38.7173 148.673 40 147.061 40H113.426C111.815 40 110.509 38.7173 110.509 37.1357V2.86486V2.86539Z" fill="#00B966"/>
<path d="M0.0204468 33.5059H16.4923V28.0595H5.98251V7.28253H0.0204468V33.5059ZM24.8319 33.5059V15.4438H18.8704V33.5059H24.8319ZM21.8516 12.9782C23.9302 12.9782 25.2242 11.5911 25.2242 9.85676C25.1856 8.08465 23.9302 6.73694 21.8912 6.73694C19.8518 6.73694 18.5182 8.08517 18.5182 9.85676C18.5182 11.5911 19.8122 12.9782 21.8126 12.9782H21.8516ZM27.5996 33.5059H33.5611V23.4188C33.5611 22.879 33.5997 22.3392 33.7575 21.9546C34.1878 20.8761 35.1687 19.7587 36.8159 19.7587C38.9736 19.7587 39.8368 21.4154 39.8368 23.8422V33.5054H45.7973V23.1492C45.7973 17.601 42.8561 15.0194 38.9335 15.0194C35.7178 15.0194 34.3056 16.8298 33.521 18.0631H33.5611V15.4438H27.5996C27.6783 17.1388 27.5996 33.5059 27.5996 33.5059ZM54.2077 7.28253H48.2462V33.5059H54.2077V27.6497L55.6976 25.7607L60.3652 33.5059H67.6988L59.8557 22.2935L66.7184 14.6658H59.5421C59.5421 14.6658 54.6396 21.4899 54.2077 22.2998V7.28253Z" fill="#00B966"/>
<path d="M83.6412 25.9715C83.7198 25.5078 83.8376 24.618 83.8376 23.6118C83.8376 18.9429 81.484 14.2026 75.2875 14.2026C68.6592 14.2026 65.5997 19.4816 65.5997 24.2697C65.5997 30.1914 69.326 33.8894 75.836 33.8894C78.4251 33.8894 80.8167 33.5054 82.7785 32.6959L81.994 28.7309C80.3853 29.2681 78.7381 29.5372 76.6992 29.5372C73.9148 29.5372 71.4837 28.3857 71.2873 25.9327L83.6412 25.9705V25.9715ZM71.2482 21.91C71.405 20.3687 72.4255 18.0946 74.9744 18.0946C77.6801 18.0946 78.3084 20.5225 78.3084 21.91H71.2487H71.2482ZM98.5523 7.28251V16.3603H98.4737C97.6105 15.0897 95.8065 14.2419 93.4154 14.2419C88.826 14.2419 84.7867 17.9404 84.8252 24.2587C84.8252 30.1154 88.4733 33.9298 93.0221 33.9298C95.4934 33.9298 97.8459 32.8501 99.0232 30.7695H99.1404L99.3764 33.5059H104.671C104.593 32.2342 104.513 30.0382 104.513 27.8805V7.28198H98.5518L98.5523 7.28251ZM98.5523 25.1453C98.5523 25.6069 98.5132 26.0701 98.4341 26.4541C98.0824 28.1119 96.6702 29.2666 94.9443 29.2666C92.4741 29.2666 90.8654 27.2636 90.8654 24.1045C90.8654 21.1383 92.2391 18.7493 94.9839 18.7493C96.827 18.7493 98.121 20.0204 98.4742 21.5995C98.5523 21.9473 98.5523 22.3329 98.5523 22.6791V25.1447V25.1453Z" fill="#00B966"/>
<path d="M123.117 33.4839V15.4218H117.155V33.4839H123.117H123.117ZM120.137 12.9562C122.216 12.9562 123.51 11.5691 123.51 9.83583C123.471 8.0632 122.216 6.71497 120.177 6.71497C118.136 6.71497 116.804 8.0632 116.804 9.83583C116.804 11.5691 118.097 12.9562 120.098 12.9562H120.137H120.137ZM126.416 33.4839H132.377V23.3984C132.377 22.8591 132.417 22.3188 132.574 21.9337C133.005 20.8546 133.986 19.7377 135.633 19.7377C137.789 19.7377 138.653 21.3939 138.653 23.8223V33.4839H144.614V23.1277C144.614 17.58 141.673 14.9985 137.751 14.9985C134.535 14.9985 133.123 16.8083 132.338 18.0412H132.378V15.4223H126.417C126.495 17.1168 126.416 33.4845 126.416 33.4845V33.4839Z" fill="white"/>
</g>
<defs>
<clipPath id="clip0_38_507">
<rect width="150" height="40" fill="white"/>
</clipPath>
</defs>
</svg>
